/* XPM */
static char * D:\1euro\images\XPDz\bitcoin64_xpm[] = {
"64 64 321 2",
"  	c None",
". 	c #5A5A5A",
"+ 	c #595959",
"@ 	c #494949",
"# 	c #4C4C4C",
"$ 	c #484848",
"% 	c #454545",
"& 	c #464646",
"* 	c #5B5B5B",
"= 	c #5D5D5D",
"- 	c #5E5E5E",
"; 	c #3A3A3A",
"> 	c #343434",
", 	c #333333",
"' 	c #373737",
") 	c #3E3E3E",
"! 	c #434343",
"~ 	c #474747",
"{ 	c #414141",
"] 	c #3B3B3B",
"^ 	c #363636",
"/ 	c #323232",
"( 	c #353535",
"_ 	c #505050",
": 	c #616161",
"< 	c #3C3C3C",
"[ 	c #4E4E4E",
"} 	c #636363",
"| 	c #626262",
"1 	c #646464",
"2 	c #676767",
"3 	c #717171",
"4 	c #606060",
"5 	c #383838",
"6 	c #3D3D3D",
"7 	c #515151",
"8 	c #313131",
"9 	c #393939",
"0 	c #525252",
"a 	c #656565",
"b 	c #6E6E6E",
"c 	c #878787",
"d 	c #A4A4A4",
"e 	c #B3B3B3",
"f 	c #CACACA",
"g 	c #D2D2D2",
"h 	c #D0D0D0",
"i 	c #D1D1D1",
"j 	c #C8C8C8",
"k 	c #B2B2B2",
"l 	c #A1A1A1",
"m 	c #848484",
"n 	c #6D6D6D",
"o 	c #666666",
"p 	c #6C6C6C",
"q 	c #919191",
"r 	c #C0C0C0",
"s 	c #D4D4D4",
"t 	c #D7D7D7",
"u 	c #D9D9D9",
"v 	c #DADADA",
"w 	c #DBDBDB",
"x 	c #D8D8D8",
"y 	c #D6D6D6",
"z 	c #D3D3D3",
"A 	c #BABABA",
"B 	c #8F8F8F",
"C 	c #696969",
"D 	c #535353",
"E 	c #AAAAAA",
"F 	c #DDDDDD",
"G 	c #E0E0E0",
"H 	c #E3E3E3",
"I 	c #E5E5E5",
"J 	c #E8E8E8",
"K 	c #EAEAEA",
"L 	c #E9E9E9",
"M 	c #E7E7E7",
"N 	c #DFDFDF",
"O 	c #DCDCDC",
"P 	c #CFCFCF",
"Q 	c #6F6F6F",
"R 	c #404040",
"S 	c #4B4B4B",
"T 	c #6B6B6B",
"U 	c #6A6A6A",
"V 	c #ABABAB",
"W 	c #DEDEDE",
"X 	c #EDEDED",
"Y 	c #F1F1F1",
"Z 	c #F4F4F4",
"` 	c #F8F8F8",
" .	c #FAFAFA",
"..	c #FBFBFB",
"+.	c #F6F6F6",
"@.	c #EEEEEE",
"#.	c #E6E6E6",
"$.	c #E1E1E1",
"%.	c #D5D5D5",
"&.	c #A7A7A7",
"*.	c #686868",
"=.	c #555555",
"-.	c #3F3F3F",
";.	c #5C5C5C",
">.	c #8C8C8C",
",.	c #ECECEC",
"'.	c #F2F2F2",
").	c #F9F9F9",
"!.	c #FFFFFF",
"~.	c #BBBBBB",
"{.	c #BDBDBD",
"].	c #CBCBCB",
"^.	c #F7F7F7",
"/.	c #CDCDCD",
"(.	c #8A8A8A",
"_.	c #B5B5B5",
":.	c #FEFEFE",
"<.	c #A2A2A2",
"[.	c #7D7D7D",
"}.	c #838383",
"|.	c #8D8D8D",
"1.	c #AEAEAE",
"2.	c #B6B6B6",
"3.	c #BCBCBC",
"4.	c #ADADAD",
"5.	c #7C7C7C",
"6.	c #F3F3F3",
"7.	c #EBEBEB",
"8.	c #CECECE",
"9.	c #ACACAC",
"0.	c #565656",
"a.	c #707070",
"b.	c #FCFCFC",
"c.	c #777777",
"d.	c #949494",
"e.	c #F0F0F0",
"f.	c #E4E4E4",
"g.	c #9D9D9D",
"h.	c #C4C4C4",
"i.	c #C3C3C3",
"j.	c #424242",
"k.	c #7B7B7B",
"l.	c #737373",
"m.	c #BEBEBE",
"n.	c #7E7E7E",
"o.	c #C7C7C7",
"p.	c #F5F5F5",
"q.	c #FDFDFD",
"r.	c #727272",
"s.	c #B8B8B8",
"t.	c #E2E2E2",
"u.	c #A0A0A0",
"v.	c #EFEFEF",
"w.	c #747474",
"x.	c #4A4A4A",
"y.	c #C1C1C1",
"z.	c #7A7A7A",
"A.	c #B4B4B4",
"B.	c #A5A5A5",
"C.	c #B1B1B1",
"D.	c #808080",
"E.	c #CCCCCC",
"F.	c #C9C9C9",
"G.	c #A3A3A3",
"H.	c #858585",
"I.	c #868686",
"J.	c #A8A8A8",
"K.	c #9A9A9A",
"L.	c #9B9B9B",
"M.	c #767676",
"N.	c #787878",
"O.	c #B7B7B7",
"P.	c #A9A9A9",
"Q.	c #575757",
"R.	c #757575",
"S.	c #9C9C9C",
"T.	c #4D4D4D",
"U.	c #C2C2C2",
"V.	c #B0B0B0",
"W.	c #AFAFAF",
"X.	c #8E8E8E",
"Y.	c #888888",
"Z.	c #C6C6C6",
"`.	c #999999",
" +	c #828282",
".+	c #959595",
"++	c #909090",
"@+	c #979797",
"#+	c #B9B9B9",
"$+	c #AFA7A7",
"%+	c #C3BDBD",
"&+	c #D6D3D3",
"*+	c #ABA2A2",
"=+	c #D9D6D6",
"-+	c #C4BEBE",
";+	c #A9A0A0",
">+	c #AAA1A1",
",+	c #ABA1A1",
"'+	c #ADA4A4",
")+	c #BBB4B4",
"!+	c #B9B1B1",
"~+	c #AAA0A0",
"{+	c #A99F9F",
"]+	c #AEA5A5",
"^+	c #BFBFBF",
"/+	c #B3ABAB",
"(+	c #988B8B",
"_+	c #B7B0B0",
":+	c #9C9191",
"<+	c #9A9090",
"[+	c #988C8C",
"}+	c #B1A8A8",
"|+	c #F0EFEF",
"1+	c #C2BDBD",
"2+	c #BFB9B9",
"3+	c #978B8B",
"4+	c #C2BCBC",
"5+	c #BDB6B6",
"6+	c #978A8A",
"7+	c #A79D9D",
"8+	c #5F5F5F",
"9+	c #A39999",
"0+	c #B5AEAE",
"a+	c #ECEBEB",
"b+	c #A09595",
"c+	c #F3F2F2",
"d+	c #978C8C",
"e+	c #DDDBDB",
"f+	c #E5E4E4",
"g+	c #E6E4E4",
"h+	c #E2DFDF",
"i+	c #E3E0E0",
"j+	c #C8C2C2",
"k+	c #D6D4D4",
"l+	c #545454",
"m+	c #CAC5C5",
"n+	c #B5ADAD",
"o+	c #CAC4C4",
"p+	c #E3E2E2",
"q+	c #F5F4F4",
"r+	c #BDB7B7",
"s+	c #EAE9E9",
"t+	c #9A8E8E",
"u+	c #DAD6D6",
"v+	c #ACA2A2",
"w+	c #A29797",
"x+	c #BFBABA",
"y+	c #C5C5C5",
"z+	c #E8E7E7",
"A+	c #EFEEEE",
"B+	c #A19797",
"C+	c #B2ABAB",
"D+	c #9B9090",
"E+	c #C4BDBD",
"F+	c #E8E6E6",
"G+	c #444444",
"H+	c #B6AFAF",
"I+	c #998E8E",
"J+	c #C1BBBB",
"K+	c #C0BABA",
"L+	c #D2CFCF",
"M+	c #CBC6C6",
"N+	c #9F9494",
"O+	c #4F4F4F",
"P+	c #B8B0B0",
"Q+	c #EBEAEA",
"R+	c #D2CECE",
"S+	c #D5D2D2",
"T+	c #D5D1D1",
"U+	c #E2E0E0",
"V+	c #9D9292",
"W+	c #9F9F9F",
"X+	c #8B8B8B",
"Y+	c #BAB2B2",
"Z+	c #E9E8E8",
"`+	c #A19595",
" @	c #F1F0F0",
".@	c #AAA2A2",
"+@	c #BAB3B3",
"@@	c #969696",
"#@	c #989898",
"$@	c #C3BCBC",
"%@	c #D6D2D2",
"&@	c #C7C1C1",
"*@	c #CCC6C6",
"=@	c #F4F3F3",
"-@	c #C5BFBF",
";@	c #C9C4C4",
">@	c #C5C0C0",
",@	c #C6C0C0",
"'@	c #929292",
")@	c #7F7F7F",
"!@	c #898989",
"~@	c #E4E3E3",
"{@	c #DAD7D7",
"]@	c #B6AEAE",
"^@	c #9E9E9E",
"/@	c #E0DEDE",
"(@	c #E4E2E2",
"_@	c #9B8F8F",
":@	c #C5BEBE",
"<@	c #C7C2C2",
"[@	c #D4CFCF",
"}@	c #968B8B",
"|@	c #ACA1A1",
"1@	c #DCD8D8",
"2@	c #D3D0D0",
"3@	c #E7E6E6",
"4@	c #EDECEC",
"5@	c #AFA6A6",
"6@	c #998D8D",
"7@	c #A69C9C",
"8@	c #A49A9A",
"9@	c #B4ACAC",
"0@	c #C0BBBB",
"a@	c #D4D0D0",
"b@	c #D3D1D1",
"c@	c #585858",
"d@	c #818181",
"e@	c #797979",
"f@	c #939393",
"                                                                                                                                ",
"                                                    . + @ # $ % & @ # # * =                                                     ",
"                                            - # ; > , ' ) ! ~ $ @ % { ] ^ / ( ) _ :                                             ",
"                                        # ' / < [ - } | 1 : 2 3 3 2 4 } : : + ~ 5 / 6 7                                         ",
"                                    $ 8 9 0 a | b c d e f g h i i i i j k l m n : - ~ ( ( [                                     ",
"                                $ 8 ) * o p q r i h g s t u v w v v x y z h h h A B C | 7 ^ ( D                                 ",
"                            . ^ 9 + 2 3 E g h s u F G H I J J K L M M I H N O t z P P d Q | # , R 4                             ",
"                          @ 8 S T U V z i x W H J X Y Z ` `  ..... .` +.Z @.K #.$.O %.P i &.*.: 6 > =.                          ",
"                        -.^ ;.o >.h h u N #.,.'.)...!.!.Z x f ~.{.].v ^.!.!...+.Y K H F y /.].(.| # 8 #                         ",
"                      ] ) a C _.i t W M @.+...:.M <.[.}.|.1.2.3.3.A 4.|.m 5.&.,.:. .6.7.H O s 8.9.*.0., %                       ",
"                    ' { U a.].i v H 7.+.b.b.~.c.d.t e.L I f.f.I #.#.#.M e.).t g.}.h.!...Y J N t /.i.n = ( !                     ",
"                  ] j.U k.8.z F M e. .b.{.l.{.^.#.I f.f.H $.f.$.$.H H H M M #.K e.m.n.o.!.^.@.H v h j l.= > %                   ",
"                -.-.U k.i %.G L p.q.K r.s.` M #.#.M L J t.g <.4.I V u.%.H I H f.I #.e.s.5.6...v.I w i ].w.= / x.                ",
"              $ ' 2 a./.s N 7.+.q.y.z.).K J H I #.K L A.<.n U u M v U n B.C.H f.H t.H I v.D.E.:.Y #.v h j p 0./ D               ",
"            . / = *.F.z N L ` :.<.G.Y #.f.G H H I L w B.p b H.J J L I.b b J.x I t.t.H H H @.K.9.!.'.I w 8.i.o @ ( }             ",
"            ( # a A.h F J +.b.L.r J $.H G N t.f.J J s b b M.{.M J K m.N.b 3 x M L J #.I #.#.J 3.&.!.v.f.x E.E 4 ; %             ",
"          ~ ; p (.h v #.Z :.d m.H H $.t.G t.f.f.f.y b b w.A.J._.K O.P.e M.b r.u 7.K 7.L J J J L ~.e q.@.$.s E.m ;./ Q.          ",
"          , * *.8.y H Y b.h.l I H f.H f.H I H f.H $.B r.x L 4.J.J.P.V I u R.B K @.@.X v.@.L M #.J S.t ).K W h o.a % <           ",
"        $ -.*.&.h W 7. .,.n.M $.f.I M #.J f.M f.$.t.f.8.M J #.J.P.J.f.K K z X X X e.'.Z Y Y 7.M f.X }. .6.#.u f l = , =.        ",
"        / - b z t I p.:.N.7.t.$.f.J J J M L I H f.H J #.L L k P.J.P.C.X v.Y Y e.'.@.e.6.'.6.v.K #.M X (.!.@.$.g E.T % 6         ",
"      T.< *.&.h N X ..U._.H t.t.J ,.,.,.,.X 7.X 7.K 7.L L C.P.J.8.P.P.V.X v.Z @.Y X X @.e.'.Y X 7.#.I 2.s ^.#.u ].L.= / *       ",
"      ' =.U h t I p.q.R.@.$.H I 7.,.@.@.Y Z p.p.6.e.Y 7.C.P.J.t I w J.P.W.J X X @.K ,.@.e.e.@.X K J L X c !.v.N g F.} < ~       ",
"    4 , 2 X.8.F 7...y.A.f.I I J 7.X @.Y '.p.@.Y v.v.,.W.P.J.%.M I f.g J.P.W.L 7.X e.,.,.X X Y Y e.,.M f.O.s +.I t ].H.0 '       ",
"    $ -.1 A g t.Y !.5.@.I I $.L J 7.K e.,.J M M #.t.W.J.P.8.M L f.f.$./.P.P.1.I @.X ,.@.v.'.e.'.+.6.X 7.Z Y.!.7.F /.4.* , +     ",
"    ; 0 p P x #.^.,.d.#.#.f.#.M J K K J I #.t.$.H v J.J.Z.X 7.@.K @.L J F.P.J.f.e.e.v.@.'.'.p.+.Z +.Y @.7.`.).v.$.g ].4 5 S     ",
"    > 4  +h w K b.E %.t.H $.f.#.#.H M J $.t.$.N H t.v m.7.@.,.X ,.,.X v.X U.G v.Y v.@.@.Y 6.Y +.p.Z e.K K z {.p.I %.f z.~ 6     ",
"  : , *.L.P W v.!.}.6.$.H G H H #.L M M H f.t.t.I J J ,.K ,.7.J 7.'.e.6.Y '.6.'.v.@.v.v.v.v.'.v.6.@.,.L J Z q b.J u f .+0 '     ",
"  =.9 1 W.z t.Y !.(.#.t.$.I M 7.J L M 7.#.L K 7.@.v.,.7.7.J L 7.X Y '.Y Z '.p.Y v.e.v.e.v.X @.v.,.v.7.J L K ++!.,.O /.g.* > o   ",
"  x.{ o U.s H p.)..+#.H M #.K ,.X @.X e.e.X v.v.v.@.@.X 7.M M 7.7.e.Z '.+.p.'.@.v.X v.v.e.v.e.X L @.X M J H @+!.@.W h A 0./ 0.  ",
"  ! & | P y I ` O #+,.J K K X @.$+%+e.v.v.v.X &+*+=+Y ,.-+;+K 7.>+,+*+'+)+Y 6.!+~+,+{+]+%+e.e.e.Y e.'.,.K L 1.@.e.N h ^++ > 4   ",
"  x.x.} h x #.).i U.L M 7.,.X /+(+_+v.e.,.@.v.Y :+<+e.v.[+}+'.|+[+1+-+2+[+3+7.*+[+4+4+5+6+7+p.^.+.p.6.@.X 7.{.t.Y $.g y.8+^ *   ",
"  & # U P x M ` o.U.J K K 7.3+9+[+0+,.J 7.@.e.Y a+3+!+b+(++.).c+d+6.e.Y e+[+f+>+[+K X +.g+3+h+i+j+j+-+4+k+,.U.%.Y $.z Z.a ^ l+  ",
"  ~ S C P x M ` j U.I M L J m+,.3+n+L J L @.'.Z Z o+d+3+p+^.6.q+d+Y v.K r+[+s+*+[+7.Y ).` t+o+u+v+,+w+3+x+,.h.y Y $.z y+a ^ 0.  ",
"  x.$ : P t #.).g 3.I f.M 7.,.@.[+n+L 7.7.p.Z +.Z z+[+t+e.v.e.A+[+>+;+B+d+C+v.*+[+@.6.6.^.D+E+` +.F+[+9+K ,.A I Y G i y.8+> *   ",
"  G+! | 8.t f.+.G e #.#.#.X 7.@.[+H+K X @.^.+.+.6.3+I+d+9+v.@.7.[+x+J+K+L+,.,.*+[+@.Z Z Z [+M+p.v.t+N+#.M L k v.e.W h m.0., :   ",
"  O+6 o {.z H Z q.|.f.H H K @.Y [+P+Y Z ` ).` p.5+d+Q+R+3+S+e.X d+7.L J M L ,.*+[+Y +.p.T+3+U+^.V+:+L K L K W+!.X O P O.=.> Q.  ",
"  l+' | W.i G Y !.X+I H $.M e.e.[+Y+` ^.+.).^.Z+[+!+Z p.`+(+^. @d+e.7.@.,.J L *+(+.@>+9+[+)+^./+3+7+~+>++@X @@!.7.v ].L.Q.> *.  ",
"  1 / a #@P F X !.(.@.G H J 7.'.$@%@+.+.` +.'.2+%+e.6.6.p.&@*@=@-@Y Y @.X @.7.;@4+-+-+>@U+Z ^.T+&@,@-+J+M+Z @@ .M t F.'@[ 9     ",
"    ( * )@h v J ).C.z t.#.L K Y Y '.6.Z e.Y v.,.7.,.@.Y Z p.6.+.Y Y e.X Y X X v.,.X e.X p.p.^.p.Z 6.X L K g y+6.H s F.M.{ G+    ",
"    -.x.T /.%.f.p.'.#@M I J 7.X v.e.'.e.e.X L 7.,.X e.e.Y '.Y p.,.v.,.K v.,.@.@.7.7.v.e.Z ^.p.6.'.Y K M L L.b.X N h o.= ( O+    ",
"    [ 5 | A.i G @.!.Y.6.L L J K @.@.@.Y ,.X K M 7.7.6.@.Y Y X Y 7.M X J K 7.I @.K X e.Y p.p.p.'.v.v.,.,.+.'@q.J v ].&.=., =     ",
"      8 : !@E.v M  .8.3.L L f.I L M K ,.K K M L ,.v.Y @.~@Q+@.v.K J 7.J K J L X ,.v.'.v.p.+.` Z Y ,.L K e t.'.H %.j  +~ <       ",
"      < @ 2 E.s t.Y !.H.e.I G t.G J 7.K ,.L 7.7.7.v.{@d+D+3+]@X @.X X 7.X X ,.@.,.,.v.Y Z 6.Z '.,.K L ).X.!.7.F P h.= ( _       ",
"      =.( 1 ^@/.w K ).h e $.N F N t.L L K K J v.e.v.3+R+e.@.3+2+v./@(@U+z+@.K X K X e.@.e.'.v.X #.7.7.O.H '.f.y j .+D > -       ",
"        ( 0 p 8.s t.e.!.H.I F O W G L K ,.e.e.+.e.m+_@'.'.e.E+N+e.d+:+(+-+@.v.@.Y v.'.X Y 7.L L I M Y @+q.K F P F.} ] ~         ",
"        O+^ } W+/.v #.p.^.)@f.W G H K K 7.v.Y Z 6.:@B+e.6.Y %+[+Y Z <@V+X -+t+3+4+e.Y v.7.J #.I #.Y B q.v.t.%.o.`.D , ;.        ",
"          ( # o j i W ,. .z @+#.f.L L 7.X @.Y 6.Z [@}@'.e.Y ,@|@p.1@d+e.,.,.J 3+X ,.@.J 7.K #.M L J.H Z I v /.U.8+5 ~           ",
"          7 , | m /.y t.v.q.A.~.K f.I I L #.v.6.'.6.3+}+Z {@3+2@Y d+7.@.X K 3+3@M f.H f.M #.#.7.y+Z.` L W i f )@T.^ 8+          ",
"            R 6 } J.E.u H e.!.1.~.M t.G f.#.X @.p.p.4@5@3+6@&+6.-+3+[+[+7@n+8@9@0@f.H G $.M K Z.3...7.G g j u.=./ 7             ",
"              > S o y.8.w I Y !.#+^@#.G N I L K 7.X '.v.e.'.@.e.e.e.p.e.+.e+2@a@b@I I H M Y J.Z...,.$.%.f #+* 9 {               ",
"              l+8 =.C Z.h w I v.q.w !@#.N f.I I L I #.7.K X L K ,.K @.@.Y v.,.7.,.K K M Y X.H ` ,.$.y ].r } j.; -               ",
"                S , ;.r.].P v H @.)...X.A.@.H I H H I M #.K #.#.#.#.J J J L J ,.@.v. .#+@@:.Z K G t E.y+*.x.> +                 ",
"                  ~ > ;.a.o.P x t.L Z !.t (.s.'.H H H f.I I H t.N G t.t.$.#.J 7.).A B t.:.v.M F z ].y.*.x./ D                   ",
"                    % , * *.y.].%.F #.@.^.!.t |.g.h 6.L H H t.N G W N W H @.z W+'@G !.6.K H w g j #+| @ / D                     ",
"                      ~ 8 0 1 &.E.h u $.M e.+.!.).{.'@d.`.E C.e C.4.V #@@@`.U...q.Z ,.f.W y /.f l * { > l+                      ",
"                        [ 8 & - }.Z.].z u N #.,.Y ^.q.!.!.v.#.v w #.e.!.!...Z v.L H W t P j U.)@=.5 ] .                         ",
"                          =.5 ' c@} W+E.E.z x W t.#.L X v.Y 6.Z 6.'.e.@.,.J f.G w y i F.f K.- S / G+-                           ",
"                              ~ / -.+ C K.F.].8.g t v F N $.t.t.t.t.G W O x %.i /.f Z..+: O+' ' D                               ",
"                                c@R 8 { + 4 H.4.].E.E.8.h g g z z g g P /.].E.o.J.d@* O+' , x.4                                 ",
"                                    + R , 5 # Q.- e@.+^@A ^+i.Z.Z.U.^+s.g.f@R.* 7 ! > ^ x.-                                     ",
"                                        ;.T.; , ^ { # =.l+l+;.: : * 0 0 0 $ < , > { l+4                                         ",
"                                              = O+! ; > , / , > , / , , ' 6 x.D :                                               ",
"                                                      *.c@} - + + 8+1 c@T                                                       ",
"                                                                                                                                "};
