/* XPM */
static char * D:\1euro\images\XPDz\bitcoin16_xpm[] = {
"16 16 107 2",
"  	c None",
". 	c #3E3E3E",
"+ 	c #404040",
"@ 	c #3B3B3B",
"# 	c #535353",
"$ 	c #A0A0A0",
"% 	c #D6D6D6",
"& 	c #F3F3F3",
"* 	c #F2F2F2",
"= 	c #D5D5D5",
"- 	c #9B9B9B",
"; 	c #515151",
"> 	c #7E7E7E",
", 	c #EDEDED",
"' 	c #D3D3D3",
") 	c #CCCCCC",
"! 	c #CDCDCD",
"~ 	c #D7D7D7",
"{ 	c #EAEAEA",
"] 	c #777777",
"^ 	c #EEEEEE",
"/ 	c #C6C6C6",
"( 	c #E7E7E7",
"_ 	c #E8E8E8",
": 	c #E6E6E6",
"< 	c #E4E4E4",
"[ 	c #C8C8C8",
"} 	c #ECECEC",
"| 	c #545454",
"1 	c #C5C5C5",
"2 	c #E3E3E3",
"3 	c #D9D9D9",
"4 	c #939393",
"5 	c #B0B0B0",
"6 	c #C9C9C9",
"7 	c #EFEFEF",
"8 	c #4F4F4F",
"9 	c #9F9F9F",
"0 	c #F0F0F0",
"a 	c #C7C7C7",
"b 	c #C0C0C0",
"c 	c #BABABA",
"d 	c #EBEBEB",
"e 	c #D8D8D8",
"f 	c #D2D2D2",
"g 	c #E0E0E0",
"h 	c #DCDCDC",
"i 	c #B9B9B9",
"j 	c #CFCFCF",
"k 	c #F1F1F1",
"l 	c #CBCBCB",
"m 	c #373737",
"n 	c #D4D4D4",
"o 	c #E7E6E6",
"p 	c #D5D4D4",
"q 	c #ECEBEB",
"r 	c #E1DFDF",
"s 	c #C6C3C3",
"t 	c #D6D2D2",
"u 	c #3C3C3C",
"v 	c #D1D1D1",
"w 	c #AEA4A4",
"x 	c #E9E7E7",
"y 	c #968A8A",
"z 	c #D4D2D2",
"A 	c #A39898",
"B 	c #F6F6F6",
"C 	c #B8B1B1",
"D 	c #B5AFAF",
"E 	c #E9E9E9",
"F 	c #DAD7D7",
"G 	c #E5E3E3",
"H 	c #E9E8E8",
"I 	c #ABA2A2",
"J 	c #D4D1D1",
"K 	c #E6E5E5",
"L 	c #BBB5B5",
"M 	c #F5F5F5",
"N 	c #BDB7B7",
"O 	c #C7C3C3",
"P 	c #999999",
"Q 	c #E2E2E2",
"R 	c #E2E0E0",
"S 	c #D5D2D2",
"T 	c #CBC6C6",
"U 	c #DDDADA",
"V 	c #E5E4E4",
"W 	c #CBC9C9",
"X 	c #8D8D8D",
"Y 	c #505050",
"Z 	c #D2CECE",
"` 	c #D7D3D3",
" .	c #B4ACAC",
"..	c #4D4D4D",
"+.	c #767676",
"@.	c #D6D3D3",
"#.	c #DCDADA",
"$.	c #C1BBBB",
"%.	c #6D6D6D",
"&.	c #747474",
"*.	c #DADADA",
"=.	c #4E4E4E",
"-.	c #919191",
";.	c #CACACA",
">.	c #8C8C8C",
",.	c #4C4C4C",
"'.	c #363636",
"            . + + @             ",
"        # $ % & * = - ;         ",
"      > , = ' ) ! ~ ~ { ]       ",
"    > ^ / ( _ : ( < : [ } ]     ",
"  | } 1 ( 2 3 4 5 6 7 ^ ) : 8   ",
"  9 = ( , 0 a 6 b c } 7 d e 4   ",
". f = 2 : g h i j ~ ^ k 7 3 l m ",
"+ 0 n d o { p q r s r t 0 e ( u ",
"+ ^ v { w x 0 y z d A B C D : u ",
"@ v = E F G H I J K L M N O 6 m ",
"  P 3 : Q K R S T { G U V W X   ",
"  Y ( a E 0 k Z `  .} { ' Q ..  ",
"    +.d ) : } @.#.$.: ' ( %.    ",
"      &.: *.e n v *.z 2 %.      ",
"        =.-.) E ( ;.>.,.        ",
"            '.@ @ m             "};
