/* XPM */
static char * D:\1euro\images\XPDz\bitcoin32_xpm[] = {
"32 32 218 2",
"  	c None",
". 	c #474747",
"+ 	c #484848",
"@ 	c #404040",
"# 	c #424242",
"$ 	c #454545",
"% 	c #4A4A4A",
"& 	c #535353",
"* 	c #434343",
"= 	c #414141",
"- 	c #505050",
"; 	c #878787",
"> 	c #A6A6A6",
", 	c #C3C3C3",
"' 	c #D9D9D9",
") 	c #DADADA",
"! 	c #D8D8D8",
"~ 	c #C1C1C1",
"{ 	c #828282",
"] 	c #3E3E3E",
"^ 	c #3C3C3C",
"/ 	c #545454",
"( 	c #969696",
"_ 	c #CFCFCF",
": 	c #E2E2E2",
"< 	c #EAEAEA",
"[ 	c #F1F1F1",
"} 	c #F6F6F6",
"| 	c #F5F5F5",
"1 	c #F0F0F0",
"2 	c #E9E9E9",
"3 	c #E0E0E0",
"4 	c #CBCBCB",
"5 	c #949494",
"6 	c #4B4B4B",
"7 	c #3D3D3D",
"8 	c #757575",
"9 	c #C6C6C6",
"0 	c #DBDBDB",
"a 	c #FEFEFE",
"b 	c #E1E1E1",
"c 	c #B9B9B9",
"d 	c #BDBDBD",
"e 	c #B7B7B7",
"f 	c #BEBEBE",
"g 	c #E3E3E3",
"h 	c #FCFCFC",
"i 	c #E7E7E7",
"j 	c #6D6D6D",
"k 	c #858585",
"l 	c #E4E4E4",
"m 	c #C5C5C5",
"n 	c #B2B2B2",
"o 	c #CCCCCC",
"p 	c #EFEFEF",
"q 	c #E6E6E6",
"r 	c #E8E8E8",
"s 	c #D0D0D0",
"t 	c #B6B6B6",
"u 	c #FBFBFB",
"v 	c #D4D4D4",
"w 	c #7E7E7E",
"x 	c #F4F4F4",
"y 	c #ABABAB",
"z 	c #E5E5E5",
"A 	c #D6D6D6",
"B 	c #7F7F7F",
"C 	c #747474",
"D 	c #B1B1B1",
"E 	c #ECECEC",
"F 	c #DFDFDF",
"G 	c #DCDCDC",
"H 	c #B4B4B4",
"I 	c #9A9A9A",
"J 	c #898989",
"K 	c #CACACA",
"L 	c #AFAFAF",
"M 	c #D3D3D3",
"N 	c #6A6A6A",
"O 	c #3F3F3F",
"P 	c #555555",
"Q 	c #C4C4C4",
"R 	c #B0B0B0",
"S 	c #B3B3B3",
"T 	c #686868",
"U 	c #CDCDCD",
"V 	c #7A7A7A",
"W 	c #F7F7F7",
"X 	c #DEDEDE",
"Y 	c #BFBFBF",
"Z 	c #464646",
"` 	c #4F4F4F",
" .	c #959595",
"..	c #727272",
"+.	c #C2C2C2",
"@.	c #A7A7A7",
"#.	c #BCBCBC",
"$.	c #ADADAD",
"%.	c #F3F3F3",
"&.	c #F2F2F2",
"*.	c #D5D5D5",
"=.	c #8F8F8F",
"-.	c #525252",
";.	c #C7C7C7",
">.	c #EBEBEB",
",.	c #EDEDED",
"'.	c #EEEEEE",
").	c #BABABA",
"!.	c #A8A8A8",
"~.	c #D2D2D2",
"{.	c #FDFDFD",
"].	c #D1D1D1",
"^.	c #BBBBBB",
"/.	c #777777",
"(.	c #444444",
"_.	c #A4A4A4",
":.	c #A9A9A9",
"<.	c #9E9E9E",
"[.	c #C9C9C9",
"}.	c #B5B5B5",
"|.	c #4D4D4D",
"1.	c #BFB9B9",
"2.	c #D5D2D2",
"3.	c #BBB3B3",
"4.	c #E1DFDF",
"5.	c #D8D4D4",
"6.	c #CBC6C6",
"7.	c #C7C2C2",
"8.	c #ABA1A1",
"9.	c #A99F9F",
"0.	c #E7E6E6",
"a.	c #A59A9A",
"b.	c #ADA3A3",
"c.	c #F2F1F1",
"d.	c #F8F8F8",
"e.	c #C0C0C0",
"f.	c #C0BABA",
"g.	c #9F9494",
"h.	c #D1CDCD",
"i.	c #A29898",
"j.	c #978A8A",
"k.	c #BBB5B5",
"l.	c #BDB7B7",
"m.	c #998D8D",
"n.	c #B3ABAB",
"o.	c #CEC9C9",
"p.	c #BDB6B6",
"q.	c #C8C3C3",
"r.	c #C2BBBB",
"s.	c #D4D1D1",
"t.	c #C4BEBE",
"u.	c #BEB8B8",
"v.	c #A9A1A1",
"w.	c #9A8E8E",
"x.	c #988C8C",
"y.	c #A69C9C",
"z.	c #BAB4B4",
"A.	c #C9C4C4",
"B.	c #3B3B3B",
"C.	c #DBD7D7",
"D.	c #DDDADA",
"E.	c #BBB4B4",
"F.	c #ACA3A3",
"G.	c #EFEEEE",
"H.	c #E8E7E7",
"I.	c #978C8C",
"J.	c #B5ADAD",
"K.	c #A3A3A3",
"L.	c #D0CBCB",
"M.	c #E1DEDE",
"N.	c #B4ACAC",
"O.	c #ECEBEB",
"P.	c #CFCACA",
"Q.	c #B7AFAF",
"R.	c #B8B0B0",
"S.	c #C1BBBB",
"T.	c #BCB5B5",
"U.	c #B6AFAF",
"V.	c #AEA8A8",
"W.	c #9B9B9B",
"X.	c #808080",
"Y.	c #D7D7D7",
"Z.	c #FAFAFA",
"`.	c #707070",
" +	c #C8C8C8",
".+	c #DFDCDC",
"++	c #9E9494",
"@+	c #A39898",
"#+	c #909090",
"$+	c #F9F9F9",
"%+	c #ABA2A2",
"&+	c #DCD9D9",
"*+	c #CAC4C4",
"=+	c #968B8B",
"-+	c #E2E0E0",
";+	c #888888",
">+	c #494949",
",+	c #ADA4A4",
"'+	c #CEC8C8",
")+	c #B2ABAB",
"!+	c #6B6B6B",
"~+	c #EAE9E9",
"{+	c #AFA7A7",
"]+	c #E0DEDE",
"^+	c #978B8B",
"/+	c #AAA0A0",
"(+	c #B1A8A8",
"_+	c #5C5C5C",
":+	c #7C7C7C",
"<+	c #DDDDDD",
"[+	c #E1E0E0",
"}+	c #E4E3E3",
"|+	c #7B7B7B",
"1+	c #CECECE",
"2+	c #717171",
"3+	c #8D8D8D",
"4+	c #868686",
"5+	c #393939",
"                              . +                               ",
"                      @ # $ % & & + * = @                       ",
"                = = - ; > , ' ) ) ! ~ > { % ] %                 ",
"              ^ / ( _ ) : < [ } | 1 2 3 ' 4 5 6 7               ",
"            = 8 9 0 < a b c d e c f c g h i ! , j ^             ",
"          * k ! l a m n o p q q q r } s t o u b v w ^           ",
"        # k ) < x > r l i 2 r q q q q : l : y | z A B ^         ",
"      ^ C ! 2 r D E F : i G H I ' J K q z g E L E l M N O       ",
"    = P Q l | R z : : g g S T U r k V r E E 2 2 n W X Y Z `     ",
"    #  .) a > i z i q l b ..+.@.#.d ; $.p %.&.< E n W *.=.]     ",
"    -.U 2 ;.3 : >.,.p [ '.>.r ).!.F q p ,.,.1 '.r b ~.: m *     ",
"  @ k ' {.R z z < '.p >.< r ).R ].!.) < '.E '.1 &.r ^.W *./.#   ",
"  (._.3 z 4 g q q r : F : e $.E E ].:.3 1 ,.&.| | '.U < ) <.]   ",
"  + f r d '.b z r i l z < S q 2 p [ [.! '.p '.p p 2 &.~ : }.@   ",
"  |.v p Q >.r E p p p '.p ,.< < ,.%.x '.E ,.1 p ,.E >.[.i o ^   ",
". -.' %.~ < >.,.1.2.E 1 3.4.5.6.7.8.9.0.a.8.b.c.d.p '.[.>.s (.  ",
"+ - ! %.e.i r f.g.h.,.x [ i.j.x k.E >.l.m.x d.n.o.p.q.K >._ *   ",
"  6 ~.,., r r ,.r.s.| } %.1.t.'.u.v.w.s.x.| | y.[ z.A.U q 4 B.  ",
"  $ d q Y E l p t.C.W x D.E.F.G.p.'.H.< I.[ G.J.h.u.x Q 3 S ]   ",
"  * K.X i 4 q E L.M.p >.N.>.O.u.P.E '.'.Q.R.S.%.T.U.V.,.' W.O   ",
"  O X.Y.Z.^.< q >.,.>.i E 1 [ '.i < 2 2 E 1 | | '.>.+.%.~.`.$   ",
"    6  +z s F F b 2 < < '..+++@+E E E E >.p &.1 2 z Y.3 ~ 7     ",
"    O #+Y.$+$.g F < ,.%.&.%+[ &+*+=+F.-+-+1 >.q ,.#.&.~.;+@     ",
"    >+6 Y 3 W R 2 i < &.%.,+&.4.'+)+>.2 1.q 2 2 f | 0 #.7       ",
"      7 !+M l ,.H q g >.[ ~+i.{+]+^+/+(+S.: ,.Y E F U _+$       ",
"        ^ :+A g d.H <+l l i 2 i r >.E [+}+z #.| 3 ]...]         ",
"          ^ |+~.X W v f [.p i l b g >.1+Q Y.%.G U 2+B.          ",
"            B.T Y A g W >., [.m , K 9 E x 3 M #._+O             ",
"              O # 3+9 A 0 g r ,.E i b ) v , 4+^ .               ",
"                  ] @ C <.t U ].s o }.W.j B.@                   ",
"                      (.O 7 5+@ O 5+7 @ >+                      ",
"                                                                "};
